<?xml version="1.0" encoding="iso-8859-1"?>
<!-- Generator: Adobe Illustrator 19.0.0, SVG Export Plug-In . SVG Version: 6.00 Build 0)  -->
<svg version="1.1" id="Capa_1" xmlns="http://www.w3.org/2000/svg" xmlns:xlink="http://www.w3.org/1999/xlink" x="0px" y="0px"
	 viewBox="0 0 512 512" style="enable-background:new 0 0 512 512;" xml:space="preserve">
<path style="fill:#EDCC7A;" d="M445.9,69.79h-88.909c-11.621,0-21.042-9.421-21.042-21.042v-20.42
	c0-11.621-9.421-21.042-21.042-21.042h-19.531c-11.621,0-21.042,9.421-21.042,21.042v20.419c0,11.621-9.421,21.042-21.042,21.042
	h-88.909c-17.093,0-30.95,13.857-30.95,30.95v373.023c0,17.093,13.857,30.95,30.95,30.95H445.9c17.093,0,30.95-13.857,30.95-30.95
	V100.74C476.85,83.646,462.993,69.79,445.9,69.79z"/>
<path style="fill:#F6DCAC;" d="M421.35,467.753H188.933c-10.254,0-18.567-8.313-18.567-18.567v-328.59
	c0-10.254,8.313-18.567,18.567-18.567H421.35c10.254,0,18.567,8.313,18.567,18.567v328.59
	C439.917,459.441,431.605,467.753,421.35,467.753z"/>
<path style="fill:#EDBC62;" d="M133.434,357.096v100.356l30.907-39.888c9.701-12.52,27.715-14.806,40.236-5.104l17.558,13.605
	c4.617,3.578,11.261,2.735,14.838-1.882l89.987-116.135c41.585-53.669,31.789-130.888-21.88-172.473l0,0L133.434,357.096z"/>
<path style="fill:#D9DDEB;" d="M220.932,392.518L132.115,323.7l171.761-221.672l0,0c53.669,41.585,63.465,118.804,21.88,172.473
	L235.77,390.636C232.192,395.253,225.549,396.096,220.932,392.518z"/>
<g>
	<path style="fill:#C7CEE0;" d="M248.856,173.036l-25.33,32.691V393.99c4.264,1.686,9.295,0.453,12.244-3.354l13.086-16.889V173.036
		z"/>
	<polygon style="fill:#C7CEE0;" points="282.06,130.184 269.394,146.53 269.394,341.028 282.06,312.006 	"/>
</g>
<path style="fill:#FFFFFF;" d="M303.877,102.028L303.877,102.028l-15.951,20.586c31.55,43.114,32.267,103.525-2.089,147.864
	L202.4,378.159l18.532,14.359c4.617,3.578,11.26,2.735,14.838-1.882l89.987-116.135
	C367.342,220.832,357.546,143.613,303.877,102.028z"/>
<path style="fill:#B37A5B;" d="M69.683,485.412l-29.98-23.23c-5.139-3.982-6.077-11.375-2.095-16.514L132.115,323.7l48.588,37.648
	L86.197,483.317C82.215,488.455,74.822,489.393,69.683,485.412z"/>
<path style="fill:#A6664C;" d="M132.115,323.699l-13.99,18.055l0,0c15.656,12.131,18.514,34.656,6.383,50.312l-65.762,84.871
	l10.936,8.474c5.139,3.982,12.532,3.044,16.514-2.095l94.507-121.969L132.115,323.699z"/>
<path d="M445.9,62.503h-88.909c-7.584,0-13.755-6.171-13.755-13.755v-20.42C343.236,12.708,330.528,0,314.907,0h-19.531
	c-15.62,0-28.328,12.708-28.328,28.328v20.419c0,7.584-6.171,13.755-13.755,13.755h-88.909c-21.084,0-38.237,17.153-38.237,38.237
	v218.765L31.848,441.206c-6.435,8.306-4.914,20.3,3.392,26.736l29.98,23.23c3.375,2.615,7.433,3.996,11.634,3.996
	c0.808,0,1.622-0.051,2.437-0.155c5.05-0.641,9.548-3.21,12.666-7.233l34.191-44.126v30.109c0,21.084,17.153,38.237,38.237,38.237
	H445.9c21.084,0,38.237-17.153,38.237-38.236V100.74C484.137,79.656,466.984,62.503,445.9,62.503z M142.338,322.402L305.035,112.43
	c45.422,39.97,52.52,109.137,14.962,157.608L230.01,386.174c-0.726,0.936-1.681,1.184-2.186,1.248
	c-0.507,0.066-1.492,0.064-2.429-0.663L142.338,322.402z M80.437,478.854c-0.733,0.947-1.792,1.551-2.98,1.702
	c-1.186,0.154-2.364-0.17-3.31-0.904l0,0l-29.98-23.23c-1.954-1.514-2.313-4.336-0.798-6.29l90.044-116.21l3.053,2.366
	l34.015,26.357l-41.45,53.494c-1.018,0.775-1.829,1.805-2.327,3.003L80.437,478.854z M469.564,473.764
	c0,13.048-10.615,23.663-23.664,23.663H164.384c-13.048,0-23.664-10.616-23.664-23.664v-48.917l41.281-53.276l34.468,26.707
	c3.163,2.451,6.967,3.746,10.905,3.746c0.758,0,1.52-0.048,2.284-0.145c4.733-0.601,8.95-3.009,11.872-6.78l89.987-116.135
	c21.305-27.495,30.627-61.641,26.249-96.148c-4.378-34.507-21.931-65.244-49.426-86.548c-1.528-1.183-3.466-1.713-5.38-1.469
	c-1.917,0.243-3.659,1.238-4.843,2.766L140.72,300.697V100.74c0-13.048,10.615-23.664,23.664-23.664h88.909
	c15.62,0,28.328-12.708,28.328-28.328v-20.42c0-7.584,6.171-13.755,13.755-13.755h19.531c7.585,0,13.756,6.171,13.756,13.755v20.419
	c0,15.62,12.708,28.328,28.328,28.328H445.9c13.048,0,23.664,10.616,23.664,23.664V473.764z"/>
<circle cx="303.77" cy="36.17" r="7.83"/>
<g>
</g>
<g>
</g>
<g>
</g>
<g>
</g>
<g>
</g>
<g>
</g>
<g>
</g>
<g>
</g>
<g>
</g>
<g>
</g>
<g>
</g>
<g>
</g>
<g>
</g>
<g>
</g>
<g>
</g>
</svg>
