<?xml version="1.0" encoding="iso-8859-1"?>
<!-- Generator: Adobe Illustrator 19.0.0, SVG Export Plug-In . SVG Version: 6.00 Build 0)  -->
<svg version="1.1" id="Capa_1" xmlns="http://www.w3.org/2000/svg" xmlns:xlink="http://www.w3.org/1999/xlink" x="0px" y="0px"
	 viewBox="0 0 512.001 512.001" style="enable-background:new 0 0 512.001 512.001;" xml:space="preserve">
<rect x="247.65" y="66" style="fill:#AAAAA0;" width="130" height="40"/>
<path style="fill:#E6E6E6;" d="M167.653,50c0,22.091,17.909,40,40,40V10C185.562,10,167.653,27.909,167.653,50z"/>
<path style="fill:#FA9600;" d="M397.654,26h-158c5.022,6.686,8,14.995,8,24c0,5.69-1.196,11.099-3.338,16h153.338V26z"/>
<path style="fill:#4696E6;" d="M239.654,26c-7.298-9.715-18.914-16-32-16v80c16.401,0,30.489-9.875,36.662-24
	C249.863,53.306,248.276,37.478,239.654,26z"/>
<g>
	<path style="fill:#E6E6E6;" d="M297.654,106h-40c0,39,0.006,68,0.006,108.491c-45.885,20.048-79.786,62.388-88.045,113.329
		c12.259-8.247,41.078-25.82,64.04-25.82c17.853,0,34.154,7.508,50.672,13.302c4.96,1.74,9.987,3.296,15.104,4.502
		c-0.593-0.134-1.186-0.275-1.777-0.422V106z"/>
	<path style="fill:#E6E6E6;" d="M465.686,327.781c-8.27-50.921-42.162-93.243-88.033-113.287V106h-40v213.609
		c24.134-5.306,47.605-17.609,68-17.609C425.522,302,453.564,319.518,465.686,327.781z"/>
</g>
<path style="fill:#4696E6;" d="M306.082,321.213c4.39,0.449,8.955,0.704,9.475,0.72c7.437,0.219,14.775-0.719,22.028-2.309
	c0.022-0.005,0.045-0.009,0.067-0.014V106h-40c0,0,0,213.361,0,213.383C297.66,320.149,301.787,320.773,306.082,321.213z"/>
<path style="fill:#5AD2E6;" d="M465.686,327.781C453.564,319.518,425.522,302,405.654,302c-20.395,0-43.866,12.303-68,17.609
	c-0.015,0.003-0.029,0.006-0.067,0.014c-12.158,2.655-27.242,2.918-39.933-0.241c-21.773-5.42-40.793-17.382-64-17.382
	c-22.961,0-51.78,17.574-64.04,25.82c-1.277,7.874-1.96,15.946-1.96,24.18c0,82.843,67.157,150,150,150s150-67.157,150-150
	C467.654,343.752,466.967,335.667,465.686,327.781z"/>
<path d="M318.474,451.99l-0.08,0.01c-5.506,0.04-9.954,4.56-9.914,10.069c0.04,5.471,4.527,9.931,9.993,9.931l0.06-0.01
	c0.01,0.01,0.01,0.01,0.02,0.01c5.506-0.05,9.953-4.57,9.913-10.08C328.428,456.45,323.941,451.99,318.474,451.99z"/>
<path d="M427.529,342c-5.506,0-9.983,4.49-9.983,10c0.01,41.53-24.982,78.119-63.664,93.209c-4.956,1.933-7.611,8.008-5.688,12.95
	c1.971,5.064,7.899,7.632,12.941,5.691c44.723-17.221,76.397-63.948,76.397-111.85C437.533,346.49,433.046,342,427.529,342z"/>
<path d="M475.612,327.955c-8.033-51.07-41.12-96.95-88.05-119.855V76h9.993c5.519,0,9.993-4.478,9.993-10V26
	c0-5.522-4.474-10-9.993-10H244.277c-9.13-9.833-22.151-16-36.59-16c-27.551,0-49.965,22.43-49.965,50
	c0,24.146,17.193,44.348,39.972,48.994V130c0,0.356-0.024,0.267,0,0.478c-0.111,1.991-2.118,22.5-37.046,57.451
	c-3.902,3.905-3.902,10.237,0,14.143c3.86,3.862,10.279,3.855,14.133,0c41.634-41.663,43.017-67.65,42.899-72.238V98.99
	c7.379-1.506,14.174-4.641,19.986-9.018V106c0,5.522,4.474,10,9.994,10c0,0,0.005,92.096,0.005,92.099
	c0,1.463-28.24,17.581-31.383,20.161c-36.499,29.954-58.56,76.481-58.56,123.741c0,88.225,71.726,160,159.889,160
	S477.5,440.225,477.5,352C477.5,343.905,476.857,335.868,475.612,327.955z M197.694,78.286
	C186.061,74.159,177.708,63.037,177.708,50s8.354-24.159,19.986-28.286V78.286z M217.68,78.286V21.714
	c11.633,4.127,19.986,15.249,19.986,28.286S229.313,74.159,217.68,78.286z M449.97,306.503C435.908,298.859,419.422,292,405.55,292
	c-14.058,0-28.276,4.791-43.329,9.864c-4.838,1.63-9.73,3.275-14.631,4.756V116h19.986v98.493c0,3.975,2.352,7.572,5.992,9.163
	C410.036,239.604,437.426,269.692,449.97,306.503z M257.652,96V76h109.924v20H257.652z M327.604,116v195.256
	c-6.647,0.929-13.348,0.975-19.986-0.042V116H327.604z M387.563,36v20c0,0-130.184,0-130.282,0c0.997-0.025,0.111-20-1.636-20
	C255.655,36,387.563,36,387.563,36z M261.659,223.654c3.64-1.591,5.992-5.188,5.992-9.163L267.646,116h19.986v190.233
	C269.949,300.325,252.745,292,233.669,292c-16,0-33.805,7.088-48.547,14.885C197.607,269.9,225.061,239.656,261.659,223.654z
	 M317.611,492c-77.143,0-139.903-62.804-139.903-140c0-6.065,0.404-12.2,1.203-18.295C200.043,320.061,220.295,312,233.669,312
	c29.243,0,54.334,20,83.942,20c30.759,0,57.588-20,87.939-20c11.312,0,30.088,8.029,50.75,21.623
	c0.806,6.123,1.214,12.287,1.214,18.377C457.514,429.196,394.754,492,317.611,492z"/>
<ellipse cx="60.79" cy="118.14" rx="10" ry="10"/>
<ellipse cx="98.95" cy="106.22" rx="10" ry="10"/>
<ellipse cx="137.11" cy="94.32" rx="10" ry="10"/>
<ellipse cx="124.22" cy="56.44" rx="9.994" ry="10"/>
<ellipse cx="84.47" cy="60.57" rx="10" ry="10"/>
<ellipse cx="44.495" cy="62.57" rx="9.995" ry="10"/>
<ellipse cx="49.586" cy="10.09" rx="10" ry="10"/>
<ellipse cx="89.38" cy="13.907" rx="10" ry="10"/>
<ellipse cx="129.17" cy="17.726" rx="10" ry="10"/>
<g>
</g>
<g>
</g>
<g>
</g>
<g>
</g>
<g>
</g>
<g>
</g>
<g>
</g>
<g>
</g>
<g>
</g>
<g>
</g>
<g>
</g>
<g>
</g>
<g>
</g>
<g>
</g>
<g>
</g>
</svg>
