<?xml version="1.0" encoding="iso-8859-1"?>
<!-- Generator: Adobe Illustrator 19.0.0, SVG Export Plug-In . SVG Version: 6.00 Build 0)  -->
<svg version="1.1" id="Capa_1" xmlns="http://www.w3.org/2000/svg" xmlns:xlink="http://www.w3.org/1999/xlink" x="0px" y="0px"
	 viewBox="0 0 512 512" style="enable-background:new 0 0 512 512;" xml:space="preserve">
<path style="fill:#C3F4EE;" d="M407.662,416.978H104.337c-19.801,0-38.212-5.486-53.896-14.984
	c-32.831-19.853-53.666-57.24-50.03-98.514L18.79,95.022h474.418l18.38,208.458C516.969,364.482,468.904,416.978,407.662,416.978z"
	/>
<path style="fill:#A5E5DF;" d="M376.315,404.439H72.99c-7.753,0-15.297-0.846-22.549-2.445
	c-32.831-19.853-53.666-57.24-50.03-98.514L18.79,95.022h444.178l17.272,195.92C485.622,351.943,437.557,404.439,376.315,404.439z"
	/>
<rect x="241.759" y="175.785" style="fill:#428FCE;" width="40.169" height="77.083"/>
<rect x="241.759" y="175.785" style="fill:#3180B5;" width="15.289" height="77.083"/>
<path style="fill:#C3F4EE;" d="M466.636,135.517H45.762c-4.328,0-7.837-3.509-7.837-7.837c0-4.328,3.509-7.837,7.837-7.837h420.874
	c4.329,0,7.837,3.509,7.837,7.837C474.473,132.008,470.965,135.517,466.636,135.517z"/>
<path style="fill:#DD3A5E;" d="M315.136,245.3v124.856c0,7.064-5.737,12.8-12.8,12.8h-80.98c-7.064,0-12.8-5.737-12.8-12.8V245.3
	c0-7.074,5.737-12.811,12.8-12.811h80.98C309.399,232.49,315.136,238.226,315.136,245.3z"/>
<path style="fill:#F74B68;" d="M315.136,245.3v124.856c0,7.064-5.737,12.8-12.8,12.8h-54.335c-7.064,0-12.8-5.737-12.8-12.8V245.3
	c0-7.074,5.737-12.811,12.8-12.811h54.335C309.399,232.49,315.136,238.226,315.136,245.3z"/>
<path style="fill:#81A9C9;" d="M175.641,266.459v91.011c0,14.075-11.41,25.485-25.485,25.485H94.556
	c-14.075,0-25.485-11.41-25.485-25.485v-91.011c0-13.699,5.559-26.802,15.412-36.321c4.922-4.754,8.788-10.407,11.41-16.593
	c2.623-6.175,4.012-12.873,4.012-19.728v-36.551h44.9v36.551c0,13.699,5.569,26.812,15.423,36.321
	c4.932,4.765,8.777,10.418,11.4,16.593C174.251,252.907,175.641,259.605,175.641,266.459z"/>
<path style="fill:#A6C8E8;" d="M175.641,266.459v91.011c0,14.075-11.41,25.485-25.485,25.485h-31.567
	c-14.075,0-25.485-11.41-25.485-25.485v-91.011c0-13.699,5.559-26.802,15.412-36.321c4.922-4.754,8.788-10.407,11.41-16.593
	c2.623-6.175,4.012-12.873,4.012-19.728v-36.551h20.867v36.551c0,13.699,5.569,26.812,15.423,36.321
	c4.932,4.765,8.777,10.418,11.4,16.593C174.251,252.907,175.641,259.605,175.641,266.459z"/>
<rect x="69.068" y="266.461" style="fill:#FFD371;" width="72.349" height="72.349"/>
<rect x="69.068" y="266.461" style="fill:#DEAF50;" width="24.033" height="72.349"/>
<rect x="99.903" y="157.269" style="fill:#F74B68;" width="44.901" height="36.551"/>
<rect x="99.903" y="157.269" style="fill:#DD3A5E;" width="24.44" height="36.551"/>
<path style="fill:#E6E6E6;" d="M261.845,331.232L261.845,331.232c12.984,0,23.509-10.525,23.509-23.509l0,0
	c0-12.984-10.525-23.509-23.509-23.509l0,0c-12.984,0-23.509,10.525-23.509,23.509l0,0
	C238.335,320.707,248.861,331.232,261.845,331.232z"/>
<rect x="350.659" y="160.404" style="fill:#428FCE;" width="78.357" height="222.554"/>
<path style="fill:#E6E6E6;" d="M429.022,243.463c-27.698,0-50.153,22.454-50.153,50.153s22.454,50.153,50.153,50.153"/>
<g>
	<rect x="350.659" y="160.393" style="fill:#3180B5;" width="28.211" height="222.554"/>
	<rect x="350.659" y="204.279" style="fill:#3180B5;" width="78.357" height="15.674"/>
</g>
<g>
</g>
<g>
</g>
<g>
</g>
<g>
</g>
<g>
</g>
<g>
</g>
<g>
</g>
<g>
</g>
<g>
</g>
<g>
</g>
<g>
</g>
<g>
</g>
<g>
</g>
<g>
</g>
<g>
</g>
</svg>
